<mxfile host="Electron" agent="Mozilla/5.0 (Windows NT 10.0; Win64; x64) AppleWebKit/537.36 (KHTML, like Gecko) draw.io/27.0.9 Chrome/134.0.6998.205 Electron/35.4.0 Safari/537.36" version="27.0.9">
  <diagram name="Page-1" id="3Fqf-u7qn7hlBDjQr0v7">
    <mxGraphModel dx="1412" dy="1996" grid="1" gridSize="10" guides="1" tooltips="1" connect="1" arrows="1" fold="1" page="1" pageScale="1" pageWidth="827" pageHeight="1169" math="0" shadow="0">
      <root>
        <mxCell id="0" />
        <mxCell id="1" parent="0" />
        <mxCell id="g0lhCiEMkt3a0PhIMLpb-1" value="team" style="swimlane;fontStyle=0;childLayout=stackLayout;horizontal=1;startSize=26;horizontalStack=0;resizeParent=1;resizeParentMax=0;resizeLast=0;collapsible=1;marginBottom=0;align=center;fontSize=14;" parent="1" vertex="1">
          <mxGeometry x="460" y="130" width="210" height="100" as="geometry" />
        </mxCell>
        <mxCell id="g0lhCiEMkt3a0PhIMLpb-2" value="team_id : INT PK" style="text;strokeColor=none;fillColor=none;spacingLeft=4;spacingRight=4;overflow=hidden;rotatable=0;points=[[0,0.5],[1,0.5]];portConstraint=eastwest;fontSize=12;whiteSpace=wrap;html=1;" parent="g0lhCiEMkt3a0PhIMLpb-1" vertex="1">
          <mxGeometry y="26" width="210" height="30" as="geometry" />
        </mxCell>
        <mxCell id="g0lhCiEMkt3a0PhIMLpb-3" value="team_name : VARCHAR (100)" style="text;strokeColor=none;fillColor=none;spacingLeft=4;spacingRight=4;overflow=hidden;rotatable=0;points=[[0,0.5],[1,0.5]];portConstraint=eastwest;fontSize=12;whiteSpace=wrap;html=1;" parent="g0lhCiEMkt3a0PhIMLpb-1" vertex="1">
          <mxGeometry y="56" width="210" height="44" as="geometry" />
        </mxCell>
        <mxCell id="g0lhCiEMkt3a0PhIMLpb-5" value="trainer" style="swimlane;fontStyle=0;childLayout=stackLayout;horizontal=1;startSize=26;horizontalStack=0;resizeParent=1;resizeParentMax=0;resizeLast=0;collapsible=1;marginBottom=0;align=center;fontSize=14;" parent="1" vertex="1">
          <mxGeometry x="780" y="90" width="420" height="190" as="geometry" />
        </mxCell>
        <mxCell id="g0lhCiEMkt3a0PhIMLpb-6" value="trainer_id :&amp;nbsp;INT PK" style="text;strokeColor=none;fillColor=none;spacingLeft=4;spacingRight=4;overflow=hidden;rotatable=0;points=[[0,0.5],[1,0.5]];portConstraint=eastwest;fontSize=12;whiteSpace=wrap;html=1;" parent="g0lhCiEMkt3a0PhIMLpb-5" vertex="1">
          <mxGeometry y="26" width="420" height="30" as="geometry" />
        </mxCell>
        <mxCell id="g0lhCiEMkt3a0PhIMLpb-7" value="trainer_name : VARCHAR (100)&lt;div&gt;&lt;br&gt;&lt;/div&gt;&lt;div&gt;&lt;span style=&quot;background-color: transparent; color: light-dark(rgb(0, 0, 0), rgb(255, 255, 255));&quot;&gt;trainer_description : VARCHAR (255)&lt;/span&gt;&lt;/div&gt;&lt;div&gt;&lt;br&gt;&lt;/div&gt;&lt;div&gt;training_time :&amp;nbsp;INT DEFAULT 0&lt;/div&gt;" style="text;strokeColor=none;fillColor=none;spacingLeft=4;spacingRight=4;overflow=hidden;rotatable=0;points=[[0,0.5],[1,0.5]];portConstraint=eastwest;fontSize=12;whiteSpace=wrap;html=1;" parent="g0lhCiEMkt3a0PhIMLpb-5" vertex="1">
          <mxGeometry y="56" width="420" height="134" as="geometry" />
        </mxCell>
        <mxCell id="g0lhCiEMkt3a0PhIMLpb-10" value="player" style="swimlane;fontStyle=0;childLayout=stackLayout;horizontal=1;startSize=26;horizontalStack=0;resizeParent=1;resizeParentMax=0;resizeLast=0;collapsible=1;marginBottom=0;align=center;fontSize=14;" parent="1" vertex="1">
          <mxGeometry x="311" y="400" width="206" height="86" as="geometry" />
        </mxCell>
        <mxCell id="g0lhCiEMkt3a0PhIMLpb-11" value="player_id :&amp;nbsp;INT PK" style="text;strokeColor=none;fillColor=none;spacingLeft=4;spacingRight=4;overflow=hidden;rotatable=0;points=[[0,0.5],[1,0.5]];portConstraint=eastwest;fontSize=12;whiteSpace=wrap;html=1;" parent="g0lhCiEMkt3a0PhIMLpb-10" vertex="1">
          <mxGeometry y="26" width="206" height="30" as="geometry" />
        </mxCell>
        <mxCell id="g0lhCiEMkt3a0PhIMLpb-12" value="player_name :&amp;nbsp;VARCHAR(100)" style="text;strokeColor=none;fillColor=none;spacingLeft=4;spacingRight=4;overflow=hidden;rotatable=0;points=[[0,0.5],[1,0.5]];portConstraint=eastwest;fontSize=12;whiteSpace=wrap;html=1;" parent="g0lhCiEMkt3a0PhIMLpb-10" vertex="1">
          <mxGeometry y="56" width="206" height="30" as="geometry" />
        </mxCell>
        <mxCell id="g0lhCiEMkt3a0PhIMLpb-14" value="training_session" style="swimlane;fontStyle=0;childLayout=stackLayout;horizontal=1;startSize=26;horizontalStack=0;resizeParent=1;resizeParentMax=0;resizeLast=0;collapsible=1;marginBottom=0;align=center;fontSize=14;" parent="1" vertex="1">
          <mxGeometry x="690" y="430" width="200" height="140" as="geometry" />
        </mxCell>
        <mxCell id="g0lhCiEMkt3a0PhIMLpb-15" value="&lt;div&gt;&amp;nbsp; session_id INT PK,&lt;/div&gt;&lt;div&gt;&amp;nbsp;&amp;nbsp;&lt;/div&gt;&lt;div&gt;&amp;nbsp; session_date : DATE&lt;/div&gt;&lt;div&gt;&amp;nbsp;&amp;nbsp;&lt;/div&gt;&lt;div&gt;&amp;nbsp; duration_minutes : INT&lt;/div&gt;&lt;div&gt;&lt;br&gt;&lt;/div&gt;&lt;div&gt;&amp;nbsp; place : INT&amp;nbsp;&lt;/div&gt;" style="text;strokeColor=none;fillColor=none;spacingLeft=4;spacingRight=4;overflow=hidden;rotatable=0;points=[[0,0.5],[1,0.5]];portConstraint=eastwest;fontSize=12;whiteSpace=wrap;html=1;" parent="g0lhCiEMkt3a0PhIMLpb-14" vertex="1">
          <mxGeometry y="26" width="200" height="114" as="geometry" />
        </mxCell>
        <mxCell id="cfAu1PwBLuN2wFAZhIoi-1" value="education" style="swimlane;fontStyle=0;childLayout=stackLayout;horizontal=1;startSize=26;horizontalStack=0;resizeParent=1;resizeParentMax=0;resizeLast=0;collapsible=1;marginBottom=0;align=center;fontSize=14;" vertex="1" parent="1">
          <mxGeometry x="1320" y="120" width="230" height="120" as="geometry" />
        </mxCell>
        <mxCell id="cfAu1PwBLuN2wFAZhIoi-2" value="&lt;div&gt;&amp;nbsp; education_id INT PK&lt;/div&gt;&lt;div&gt;&amp;nbsp;&amp;nbsp;&lt;/div&gt;&lt;div&gt;&amp;nbsp; eduation_name : VARCHAR (100)&lt;/div&gt;&lt;div&gt;&amp;nbsp;&amp;nbsp;&lt;/div&gt;&lt;div&gt;&amp;nbsp; education_description VARCHAR(255)&lt;/div&gt;&lt;div&gt;&lt;br&gt;&lt;/div&gt;" style="text;strokeColor=none;fillColor=none;spacingLeft=4;spacingRight=4;overflow=hidden;rotatable=0;points=[[0,0.5],[1,0.5]];portConstraint=eastwest;fontSize=12;whiteSpace=wrap;html=1;" vertex="1" parent="cfAu1PwBLuN2wFAZhIoi-1">
          <mxGeometry y="26" width="230" height="94" as="geometry" />
        </mxCell>
        <mxCell id="cfAu1PwBLuN2wFAZhIoi-3" value="trainer_education" style="swimlane;fontStyle=0;childLayout=stackLayout;horizontal=1;startSize=26;horizontalStack=0;resizeParent=1;resizeParentMax=0;resizeLast=0;collapsible=1;marginBottom=0;align=center;fontSize=14;" vertex="1" parent="1">
          <mxGeometry x="1160" y="400" width="200" height="90" as="geometry" />
        </mxCell>
        <mxCell id="cfAu1PwBLuN2wFAZhIoi-4" value="&lt;div&gt;&lt;span style=&quot;background-color: transparent; color: light-dark(rgb(0, 0, 0), rgb(255, 255, 255));&quot;&gt;trainer_id : INT FK&amp;nbsp;&lt;/span&gt;&lt;/div&gt;&lt;div&gt;&amp;nbsp;&lt;/div&gt;&lt;div&gt;&amp;nbsp;education_id : INT FK&lt;/div&gt;&lt;div&gt;&lt;br&gt;&lt;/div&gt;" style="text;strokeColor=none;fillColor=none;spacingLeft=4;spacingRight=4;overflow=hidden;rotatable=0;points=[[0,0.5],[1,0.5]];portConstraint=eastwest;fontSize=12;whiteSpace=wrap;html=1;" vertex="1" parent="cfAu1PwBLuN2wFAZhIoi-3">
          <mxGeometry y="26" width="200" height="64" as="geometry" />
        </mxCell>
        <mxCell id="cfAu1PwBLuN2wFAZhIoi-5" value="trainer_team" style="swimlane;fontStyle=0;childLayout=stackLayout;horizontal=1;startSize=26;horizontalStack=0;resizeParent=1;resizeParentMax=0;resizeLast=0;collapsible=1;marginBottom=0;align=center;fontSize=14;" vertex="1" parent="1">
          <mxGeometry x="610" y="-86" width="200" height="86" as="geometry" />
        </mxCell>
        <mxCell id="cfAu1PwBLuN2wFAZhIoi-6" value="trainer_id :&amp;nbsp;INT FK" style="text;strokeColor=none;fillColor=none;spacingLeft=4;spacingRight=4;overflow=hidden;rotatable=0;points=[[0,0.5],[1,0.5]];portConstraint=eastwest;fontSize=12;whiteSpace=wrap;html=1;" vertex="1" parent="cfAu1PwBLuN2wFAZhIoi-5">
          <mxGeometry y="26" width="200" height="30" as="geometry" />
        </mxCell>
        <mxCell id="cfAu1PwBLuN2wFAZhIoi-7" value="team_id : INT FK" style="text;strokeColor=none;fillColor=none;spacingLeft=4;spacingRight=4;overflow=hidden;rotatable=0;points=[[0,0.5],[1,0.5]];portConstraint=eastwest;fontSize=12;whiteSpace=wrap;html=1;" vertex="1" parent="cfAu1PwBLuN2wFAZhIoi-5">
          <mxGeometry y="56" width="200" height="30" as="geometry" />
        </mxCell>
        <mxCell id="cfAu1PwBLuN2wFAZhIoi-11" value="" style="endArrow=ERoneToMany;html=1;rounded=0;startArrow=ERmandOne;startFill=0;endFill=0;exitX=0.314;exitY=0.03;exitDx=0;exitDy=0;exitPerimeter=0;" edge="1" parent="1" source="g0lhCiEMkt3a0PhIMLpb-1">
          <mxGeometry width="50" height="50" relative="1" as="geometry">
            <mxPoint x="590" y="230" as="sourcePoint" />
            <mxPoint x="608" y="-40" as="targetPoint" />
            <Array as="points">
              <mxPoint x="526" y="-40" />
            </Array>
          </mxGeometry>
        </mxCell>
        <mxCell id="cfAu1PwBLuN2wFAZhIoi-13" value="" style="endArrow=ERoneToMany;html=1;rounded=0;entryX=0.995;entryY=0.867;entryDx=0;entryDy=0;entryPerimeter=0;startArrow=ERmandOne;startFill=0;endFill=0;" edge="1" parent="1" source="g0lhCiEMkt3a0PhIMLpb-5" target="cfAu1PwBLuN2wFAZhIoi-6">
          <mxGeometry width="50" height="50" relative="1" as="geometry">
            <mxPoint x="1020" y="270" as="sourcePoint" />
            <mxPoint x="1070" y="220" as="targetPoint" />
            <Array as="points">
              <mxPoint x="990" y="-34" />
            </Array>
          </mxGeometry>
        </mxCell>
        <mxCell id="cfAu1PwBLuN2wFAZhIoi-15" value="" style="endArrow=ERzeroToMany;html=1;rounded=0;exitX=0.952;exitY=1;exitDx=0;exitDy=0;exitPerimeter=0;startArrow=ERmandOne;startFill=0;endFill=0;entryX=-0.01;entryY=0.211;entryDx=0;entryDy=0;entryPerimeter=0;" edge="1" parent="1" source="g0lhCiEMkt3a0PhIMLpb-3" target="g0lhCiEMkt3a0PhIMLpb-15">
          <mxGeometry width="50" height="50" relative="1" as="geometry">
            <mxPoint x="1020" y="270" as="sourcePoint" />
            <mxPoint x="950" y="400" as="targetPoint" />
            <Array as="points">
              <mxPoint x="660" y="480" />
            </Array>
          </mxGeometry>
        </mxCell>
        <mxCell id="cfAu1PwBLuN2wFAZhIoi-17" value="" style="endArrow=ERzeroToMany;html=1;rounded=0;startArrow=ERmandOne;startFill=0;endFill=0;entryX=1;entryY=0.5;entryDx=0;entryDy=0;" edge="1" parent="1" source="g0lhCiEMkt3a0PhIMLpb-7" target="g0lhCiEMkt3a0PhIMLpb-15">
          <mxGeometry width="50" height="50" relative="1" as="geometry">
            <mxPoint x="796" y="240" as="sourcePoint" />
            <mxPoint x="1086" y="410" as="targetPoint" />
            <Array as="points">
              <mxPoint x="990" y="513" />
            </Array>
          </mxGeometry>
        </mxCell>
        <mxCell id="cfAu1PwBLuN2wFAZhIoi-19" value="" style="endArrow=ERoneToMany;html=1;rounded=0;startArrow=ERmandOne;startFill=0;endFill=0;entryX=0;entryY=0.375;entryDx=0;entryDy=0;entryPerimeter=0;exitX=0.764;exitY=1.03;exitDx=0;exitDy=0;exitPerimeter=0;" edge="1" parent="1" source="g0lhCiEMkt3a0PhIMLpb-7" target="cfAu1PwBLuN2wFAZhIoi-4">
          <mxGeometry width="50" height="50" relative="1" as="geometry">
            <mxPoint x="1148" y="280" as="sourcePoint" />
            <mxPoint x="1241" y="451" as="targetPoint" />
            <Array as="points">
              <mxPoint x="1100" y="450" />
            </Array>
          </mxGeometry>
        </mxCell>
        <mxCell id="cfAu1PwBLuN2wFAZhIoi-21" value="" style="endArrow=ERzeroToMany;html=1;rounded=0;entryX=1.01;entryY=0.266;entryDx=0;entryDy=0;entryPerimeter=0;startArrow=ERmandOne;startFill=0;endFill=0;" edge="1" parent="1" target="cfAu1PwBLuN2wFAZhIoi-4">
          <mxGeometry width="50" height="50" relative="1" as="geometry">
            <mxPoint x="1437" y="240" as="sourcePoint" />
            <mxPoint x="1623" y="751" as="targetPoint" />
            <Array as="points">
              <mxPoint x="1437" y="443" />
            </Array>
          </mxGeometry>
        </mxCell>
        <mxCell id="cfAu1PwBLuN2wFAZhIoi-23" value="team_player" style="swimlane;fontStyle=0;childLayout=stackLayout;horizontal=1;startSize=26;horizontalStack=0;resizeParent=1;resizeParentMax=0;resizeLast=0;collapsible=1;marginBottom=0;align=center;fontSize=14;" vertex="1" parent="1">
          <mxGeometry x="160" y="240" width="200" height="90" as="geometry" />
        </mxCell>
        <mxCell id="cfAu1PwBLuN2wFAZhIoi-24" value="&lt;div&gt;&lt;span style=&quot;background-color: transparent; color: light-dark(rgb(0, 0, 0), rgb(255, 255, 255));&quot;&gt;team_id : INT FK&amp;nbsp;&lt;/span&gt;&lt;/div&gt;&lt;div&gt;&amp;nbsp;&lt;/div&gt;&lt;div&gt;&amp;nbsp;player_id : INT FK&lt;/div&gt;&lt;div&gt;&lt;br&gt;&lt;/div&gt;" style="text;strokeColor=none;fillColor=none;spacingLeft=4;spacingRight=4;overflow=hidden;rotatable=0;points=[[0,0.5],[1,0.5]];portConstraint=eastwest;fontSize=12;whiteSpace=wrap;html=1;" vertex="1" parent="cfAu1PwBLuN2wFAZhIoi-23">
          <mxGeometry y="26" width="200" height="64" as="geometry" />
        </mxCell>
        <mxCell id="cfAu1PwBLuN2wFAZhIoi-25" value="" style="endArrow=ERoneToMany;html=1;rounded=0;exitX=-0.019;exitY=0.133;exitDx=0;exitDy=0;exitPerimeter=0;entryX=0.75;entryY=0;entryDx=0;entryDy=0;startArrow=ERmandOne;startFill=0;endFill=0;" edge="1" parent="1" source="g0lhCiEMkt3a0PhIMLpb-2" target="cfAu1PwBLuN2wFAZhIoi-23">
          <mxGeometry width="50" height="50" relative="1" as="geometry">
            <mxPoint x="460" y="186" as="sourcePoint" />
            <mxPoint x="283" y="357" as="targetPoint" />
            <Array as="points">
              <mxPoint x="310" y="160" />
            </Array>
          </mxGeometry>
        </mxCell>
        <mxCell id="cfAu1PwBLuN2wFAZhIoi-26" value="" style="endArrow=ERoneToMany;html=1;rounded=0;exitX=-0.005;exitY=0.133;exitDx=0;exitDy=0;exitPerimeter=0;entryX=0.31;entryY=1.031;entryDx=0;entryDy=0;startArrow=ERmandOne;startFill=0;endFill=0;entryPerimeter=0;" edge="1" parent="1" source="g0lhCiEMkt3a0PhIMLpb-11" target="cfAu1PwBLuN2wFAZhIoi-24">
          <mxGeometry width="50" height="50" relative="1" as="geometry">
            <mxPoint x="300" y="660" as="sourcePoint" />
            <mxPoint x="150" y="720" as="targetPoint" />
            <Array as="points">
              <mxPoint x="220" y="430" />
            </Array>
          </mxGeometry>
        </mxCell>
      </root>
    </mxGraphModel>
  </diagram>
</mxfile>
